<?xml version="1.0" encoding="UTF-8"?>
<svg id="Layer_2" data-name="Layer 2" xmlns="http://www.w3.org/2000/svg" viewBox="0 0 510.89 139.02">
  <defs>
    <style>
      .cls-1 {
        fill: none;
        stroke: #231f20;
        stroke-miterlimit: 10;
        stroke-width: 5px;
      }

      .cls-2 {
        fill: #231f20;
      }
    </style>
  </defs>
  <g id="Layer_1-2" data-name="Layer 1">
    <g>
      <g>
        <g>
          <path d="M192.98,77c-1.66,1.69-3.28,3.14-4.87,4.37-1.59,1.23-3.22,2.24-4.87,3.03-1.66,.8-3.39,1.38-5.21,1.77-1.81,.38-3.79,.57-5.92,.57-2.83,0-5.38-.48-7.64-1.43-2.26-.96-4.2-2.3-5.8-4.04-1.61-1.73-2.84-3.84-3.7-6.3-.86-2.47-1.29-5.23-1.29-8.29,0-2.55,.27-5.05,.81-7.52s1.33-4.82,2.36-7.04c1.03-2.23,2.29-4.29,3.77-6.18,1.48-1.89,3.17-3.53,5.06-4.9,1.89-1.37,3.98-2.44,6.26-3.22,2.28-.78,4.72-1.17,7.33-1.17s4.7,.36,6.54,1.07c1.85,.72,3.38,1.64,4.61,2.77,1.22,1.13,2.14,2.38,2.75,3.75,.6,1.37,.91,2.71,.91,4.01,0,2.13-.44,4.09-1.31,5.87-.88,1.78-2.44,3.39-4.7,4.82-2.26,1.43-5.36,2.67-9.29,3.73-3.93,1.05-8.97,1.89-15.11,2.53-.03,.19-.05,.39-.05,.6v.64c0,4.04,.88,7.09,2.63,9.15,1.75,2.05,4.38,3.08,7.88,3.08,2.2,0,4.03-.3,5.49-.91,1.46-.6,2.71-1.27,3.75-1.98,1.03-.72,1.94-1.38,2.72-1.98,.78-.6,1.6-.91,2.46-.91,.67,0,1.29,.32,1.86,.96l2.58,3.15Zm-14.28-33.1c-1.78,0-3.43,.37-4.94,1.1-1.51,.73-2.87,1.74-4.06,3.03s-2.23,2.83-3.1,4.61c-.88,1.78-1.55,3.73-2.03,5.83,4.39-.57,7.93-1.21,10.6-1.91,2.67-.7,4.73-1.46,6.16-2.29,1.43-.83,2.39-1.71,2.87-2.65,.48-.94,.72-1.93,.72-2.98,0-.51-.11-1.05-.33-1.62s-.58-1.08-1.07-1.53c-.49-.45-1.14-.82-1.93-1.12-.8-.3-1.75-.45-2.87-.45Z"/>
          <path d="M214.08,84.35c-3.47-1.56-6.19-3.72-8.17-6.49-1.97-2.77-2.99-5.97-3.06-9.6h9.26c.32,3.12,1.61,5.75,3.87,7.88,2.26,2.13,5.55,3.2,9.89,3.2s7.4-1.03,9.79-3.1c2.39-2.07,3.58-4.73,3.58-7.98,0-2.55-.7-4.62-2.1-6.21-1.4-1.59-3.15-2.8-5.25-3.63-2.1-.83-4.94-1.72-8.5-2.67-4.39-1.15-7.91-2.29-10.55-3.44-2.64-1.15-4.9-2.94-6.78-5.4-1.88-2.45-2.82-5.75-2.82-9.89,0-3.63,.92-6.84,2.77-9.65,1.85-2.8,4.44-4.97,7.79-6.49,3.34-1.53,7.18-2.29,11.51-2.29,6.24,0,11.35,1.56,15.33,4.68,3.98,3.12,6.22,7.26,6.73,12.42h-9.55c-.32-2.55-1.66-4.79-4.01-6.73-2.36-1.94-5.48-2.91-9.36-2.91-3.63,0-6.59,.94-8.88,2.82-2.29,1.88-3.44,4.51-3.44,7.88,0,2.42,.68,4.39,2.05,5.92,1.37,1.53,3.06,2.69,5.06,3.49,2,.8,4.82,1.7,8.45,2.72,4.39,1.21,7.93,2.4,10.6,3.58,2.67,1.18,4.97,2.99,6.88,5.44,1.91,2.45,2.87,5.78,2.87,9.98,0,3.25-.86,6.3-2.58,9.17-1.72,2.87-4.27,5.19-7.64,6.97-3.38,1.78-7.35,2.67-11.94,2.67s-8.33-.78-11.8-2.34Z"/>
          <path d="M260.84,45.58c2.16-4.04,5.17-7.18,9.03-9.41,3.85-2.23,8.26-3.34,13.23-3.34,6.43,0,11.73,1.56,15.9,4.68,4.17,3.12,6.92,7.45,8.26,12.99h-9.36c-.89-3.18-2.63-5.7-5.21-7.55-2.58-1.85-5.78-2.77-9.6-2.77-4.97,0-8.98,1.7-12.04,5.11-3.06,3.41-4.58,8.23-4.58,14.47s1.53,11.18,4.58,14.61c3.06,3.44,7.07,5.16,12.04,5.16,3.82,0,7-.89,9.55-2.67,2.55-1.78,4.3-4.33,5.25-7.64h9.36c-1.4,5.35-4.2,9.63-8.4,12.85-4.2,3.22-9.46,4.82-15.76,4.82-4.97,0-9.38-1.11-13.23-3.34-3.85-2.23-6.86-5.38-9.03-9.46-2.17-4.07-3.25-8.85-3.25-14.33s1.08-10.14,3.25-14.18Z"/>
          <path d="M355.49,35.26c3.18,1.69,5.68,4.22,7.5,7.59,1.81,3.38,2.72,7.48,2.72,12.32v30.85h-8.6v-29.61c0-5.22-1.31-9.22-3.92-11.99-2.61-2.77-6.18-4.15-10.7-4.15s-8.23,1.43-10.94,4.3c-2.71,2.87-4.06,7.04-4.06,12.51v28.94h-8.69V15.35h8.69v25.79c1.72-2.67,4.09-4.74,7.12-6.21,3.02-1.46,6.41-2.2,10.17-2.2,3.95,0,7.51,.84,10.7,2.53Z"/>
          <path d="M389.44,83.54c-3.98-2.23-7.1-5.4-9.36-9.5-2.26-4.11-3.39-8.87-3.39-14.28s1.16-10.08,3.49-14.18c2.32-4.11,5.49-7.26,9.5-9.46s8.5-3.29,13.47-3.29,9.46,1.1,13.47,3.29,7.18,5.33,9.5,9.41c2.32,4.08,3.49,8.82,3.49,14.23s-1.19,10.17-3.58,14.28c-2.39,4.11-5.62,7.28-9.69,9.5-4.08,2.23-8.6,3.34-13.56,3.34s-9.34-1.11-13.32-3.34Zm22.11-6.5c2.74-1.46,4.95-3.66,6.64-6.59,1.69-2.93,2.53-6.5,2.53-10.7s-.83-7.77-2.48-10.7c-1.66-2.93-3.82-5.11-6.5-6.54-2.67-1.43-5.57-2.15-8.69-2.15s-6.1,.72-8.74,2.15c-2.64,1.43-4.76,3.61-6.35,6.54-1.59,2.93-2.39,6.49-2.39,10.7s.78,7.86,2.34,10.79c1.56,2.93,3.64,5.11,6.26,6.54,2.61,1.43,5.48,2.15,8.6,2.15s6.05-.73,8.79-2.2Z"/>
          <path d="M450.57,83.54c-3.98-2.23-7.1-5.4-9.36-9.5-2.26-4.11-3.39-8.87-3.39-14.28s1.16-10.08,3.49-14.18c2.32-4.11,5.49-7.26,9.5-9.46s8.5-3.29,13.47-3.29,9.46,1.1,13.47,3.29,7.18,5.33,9.5,9.41c2.32,4.08,3.49,8.82,3.49,14.23s-1.19,10.17-3.58,14.28c-2.39,4.11-5.62,7.28-9.69,9.5-4.08,2.23-8.6,3.34-13.56,3.34s-9.34-1.11-13.32-3.34Zm22.11-6.5c2.74-1.46,4.95-3.66,6.64-6.59,1.69-2.93,2.53-6.5,2.53-10.7s-.83-7.77-2.48-10.7c-1.66-2.93-3.82-5.11-6.5-6.54-2.67-1.43-5.57-2.15-8.69-2.15s-6.1,.72-8.74,2.15c-2.64,1.43-4.76,3.61-6.35,6.54-1.59,2.93-2.39,6.49-2.39,10.7s.78,7.86,2.34,10.79c1.56,2.93,3.64,5.11,6.26,6.54,2.61,1.43,5.48,2.15,8.6,2.15s6.05-.73,8.79-2.2Z"/>
          <path d="M510.89,15.35V86.03h-8.69V15.35h8.69Z"/>
        </g>
        <g>
          <path d="M157.5,120.29h7.88v3.08h-11.7v-23.31h3.82v20.22Z"/>
          <path d="M186.4,115.56h-14.12c.11,1.48,.66,2.66,1.64,3.55,.98,.89,2.19,1.34,3.62,1.34,2.06,0,3.51-.86,4.36-2.58h4.12c-.56,1.7-1.57,3.09-3.04,4.17s-3.28,1.63-5.45,1.63c-1.77,0-3.35-.4-4.75-1.19-1.4-.79-2.49-1.91-3.29-3.35-.79-1.44-1.19-3.11-1.19-5.01s.39-3.57,1.16-5.01c.77-1.44,1.86-2.55,3.25-3.34,1.4-.78,3-1.17,4.81-1.17s3.3,.38,4.66,1.14c1.36,.76,2.43,1.83,3.19,3.2,.76,1.38,1.14,2.96,1.14,4.75,0,.69-.04,1.32-.13,1.88Zm-3.86-3.08c-.02-1.41-.53-2.54-1.51-3.39-.98-.85-2.2-1.27-3.65-1.27-1.32,0-2.45,.42-3.39,1.26-.94,.84-1.5,1.97-1.68,3.4h10.23Z"/>
          <path d="M191.21,109.12c.77-1.43,1.82-2.54,3.15-3.34,1.33-.79,2.8-1.19,4.41-1.19,1.45,0,2.72,.28,3.81,.85,1.08,.57,1.95,1.28,2.6,2.13v-2.68h3.86v18.48h-3.86v-2.75c-.65,.87-1.53,1.6-2.65,2.18-1.12,.58-2.39,.87-3.82,.87-1.59,0-3.04-.41-4.36-1.22-1.32-.82-2.36-1.96-3.14-3.42-.77-1.46-1.16-3.12-1.16-4.98s.39-3.5,1.16-4.93Zm13.18,1.68c-.53-.94-1.21-1.65-2.06-2.15-.85-.49-1.77-.74-2.75-.74s-1.9,.24-2.75,.72c-.85,.48-1.54,1.19-2.06,2.11-.53,.93-.79,2.03-.79,3.3s.26,2.39,.79,3.35c.52,.96,1.22,1.69,2.08,2.2,.86,.5,1.77,.75,2.73,.75s1.9-.25,2.75-.74c.85-.49,1.54-1.21,2.06-2.16,.52-.95,.79-2.06,.79-3.34s-.26-2.38-.79-3.32Z"/>
          <path d="M221.16,105.38c.93-.53,2.03-.79,3.3-.79v3.96h-.97c-1.5,0-2.63,.38-3.4,1.14-.77,.76-1.16,2.08-1.16,3.96v9.72h-3.82v-18.48h3.82v2.68c.56-.94,1.3-1.67,2.23-2.2Z"/>
          <path d="M242.25,105.5c1.15,.6,2.05,1.5,2.7,2.68s.97,2.62,.97,4.29v10.9h-3.79v-10.33c0-1.65-.41-2.92-1.24-3.81-.83-.88-1.96-1.32-3.39-1.32s-2.57,.44-3.4,1.32c-.84,.88-1.26,2.15-1.26,3.81v10.33h-3.82v-18.48h3.82v2.11c.63-.76,1.43-1.35,2.4-1.78,.97-.42,2.01-.64,3.1-.64,1.45,0,2.75,.3,3.91,.91Z"/>
          <path d="M275.3,100.07v3.12h-9.89v6.88h7.71v3.12h-7.71v10.19h-3.82v-23.31h13.71Z"/>
          <path d="M285.94,105.38c.93-.53,2.03-.79,3.3-.79v3.96h-.97c-1.5,0-2.63,.38-3.4,1.14-.77,.76-1.16,2.08-1.16,3.96v9.72h-3.82v-18.48h3.82v2.68c.56-.94,1.3-1.67,2.23-2.2Z"/>
          <path d="M310.61,115.56h-14.12c.11,1.48,.66,2.66,1.64,3.55,.98,.89,2.19,1.34,3.62,1.34,2.06,0,3.51-.86,4.36-2.58h4.12c-.56,1.7-1.57,3.09-3.03,4.17-1.46,1.08-3.28,1.63-5.45,1.63-1.77,0-3.35-.4-4.75-1.19-1.4-.79-2.49-1.91-3.29-3.35-.79-1.44-1.19-3.11-1.19-5.01s.39-3.57,1.16-5.01c.77-1.44,1.86-2.55,3.25-3.34,1.4-.78,3-1.17,4.81-1.17s3.3,.38,4.66,1.14c1.36,.76,2.42,1.83,3.19,3.2,.76,1.38,1.14,2.96,1.14,4.75,0,.69-.04,1.32-.13,1.88Zm-3.86-3.08c-.02-1.41-.53-2.54-1.51-3.39-.98-.85-2.2-1.27-3.66-1.27-1.32,0-2.45,.42-3.39,1.26-.94,.84-1.5,1.97-1.68,3.4h10.23Z"/>
          <path d="M332.34,115.56h-14.12c.11,1.48,.66,2.66,1.64,3.55,.98,.89,2.19,1.34,3.62,1.34,2.06,0,3.51-.86,4.36-2.58h4.12c-.56,1.7-1.57,3.09-3.03,4.17-1.46,1.08-3.28,1.63-5.45,1.63-1.77,0-3.35-.4-4.75-1.19-1.4-.79-2.49-1.91-3.29-3.35-.79-1.44-1.19-3.11-1.19-5.01s.39-3.57,1.16-5.01c.77-1.44,1.86-2.55,3.25-3.34,1.4-.78,3-1.17,4.81-1.17s3.3,.38,4.66,1.14c1.36,.76,2.42,1.83,3.19,3.2,.76,1.38,1.14,2.96,1.14,4.75,0,.69-.04,1.32-.13,1.88Zm-3.86-3.08c-.02-1.41-.53-2.54-1.51-3.39-.98-.85-2.2-1.27-3.66-1.27-1.32,0-2.45,.42-3.39,1.26-.94,.84-1.5,1.97-1.68,3.4h10.23Z"/>
        </g>
      </g>
      <g>
        <path class="cls-2" d="M63.23,115.11H28.99c-4.28,0-7.76-3.48-7.76-7.76v-8.86c0-7.65-2.88-14.81-8.1-20.15C4.66,69.67,0,58.23,0,46.11S5.02,21.66,14.13,12.89C23.24,4.12,35.22-.44,47.9,.03c24.2,.92,43.66,20.62,44.3,44.84h0c.33,12.43-4.23,24.21-12.82,33.16-5.41,5.64-8.39,12.9-8.39,20.45v8.86c0,4.28-3.48,7.76-7.76,7.76ZM46.1,6c-10.44,0-20.26,3.95-27.8,11.21-7.93,7.63-12.3,17.9-12.3,28.9s4.06,20.49,11.42,28.03c6.33,6.47,9.81,15.12,9.81,24.35v8.86c0,.97,.79,1.76,1.76,1.76H63.23c.97,0,1.76-.79,1.76-1.76v-8.86c0-9.11,3.57-17.85,10.06-24.61,7.48-7.79,11.44-18.04,11.15-28.85h0c-.55-21.07-17.48-38.2-38.53-39-.53-.02-1.06-.03-1.58-.03Z"/>
        <path class="cls-2" d="M64.87,127.2H27.35c-1.38,0-2.5-1.34-2.5-3h0c0-1.66,1.12-3,2.5-3h37.52c1.38,0,2.5,1.34,2.5,3h0c0,1.66-1.12,3-2.5,3Z"/>
        <path class="cls-2" d="M59.7,139.02h-27.19c-1,0-1.81-1.34-1.81-3h0c0-1.66,.81-3,1.81-3h27.19c1,0,1.81,1.34,1.81,3h0c0,1.66-.81,3-1.81,3Z"/>
        <path class="cls-2" d="M57.41,20.44c0,.32-.02,.63-.07,.93-.27,1.95-1.41,3.63-3.02,4.61-2.47-.36-5.15-.6-7.73-.62-3.92-.05-7.61,.4-9.98,1.69-6.61,3.58-12.71,6.67-14.34,14.45-2,9.58,.62,19.83,6.86,27.31,.86,1.03,.89,2.55,.03,3.51-.96,1.08-2.6,.99-3.57-.17-7.3-8.75-10.36-20.75-8.01-31.97,1.9-9.11,7.04-16.73,14.46-21.47,5.46-3.49,11.68-5.11,18.01-4.74,.99,.04,1.97,.15,2.96,.3l2.99,2.11c.88,1.11,1.41,2.53,1.41,4.06Z"/>
      </g>
      <line class="cls-1" x1="122.95" x2="122.95" y2="139.02"/>
    </g>
  </g>
</svg>